<svg xmlns="http://www.w3.org/2000/svg" width="34" height="41" viewBox="0 0 34 41"><g><g><path fill="#fff" d="M0 34.911V21.294c0-2.758 1.776-5.119 4.313-5.889v-4.298c0-6.114 5.202-11.108 11.418-11.108h2.538c6.216 0 11.164 5.02 11.164 11.108v4.298c2.79.77 4.567 3.13 4.567 5.89V34.91C34 38.315 31.184 41 27.707 41H6.292C2.816 40.999 0 38.315 0 34.91zm7.358-23.804v4.05h19.03v-4.05c0-4.449-3.578-8.126-8.12-8.126h-2.537c-4.542 0-8.373 3.677-8.373 8.126zm23.597 23.73V21.317c0-1.764-1.446-3.18-3.248-3.18H6.292c-1.801 0-3.247 1.416-3.247 3.18v13.518c0 1.764 1.446 3.18 3.247 3.18h21.415c1.802 0 3.248-1.416 3.248-3.18zM14.97 32.798v-4.721c0-.82.685-1.491 1.522-1.491.838 0 1.523.67 1.523 1.49V32.8c0 .82-.685 1.491-1.523 1.491-.837 0-1.522-.671-1.522-1.491z"/></g></g></svg>